<?xml version="1.0" encoding="utf-8"?>
<!-- Generator: Adobe Illustrator 21.0.0, SVG Export Plug-In . SVG Version: 6.00 Build 0)  -->
<svg version="1.1" id="Calque_1" xmlns="http://www.w3.org/2000/svg" xmlns:xlink="http://www.w3.org/1999/xlink" x="0px" y="0px"
	 width="23px" height="24px" viewBox="0 0 23 24" style="enable-background:new 0 0 23 24;" xml:space="preserve">
<style type="text/css">
	.st0{fill:#AFAFAF;}
</style>
<g>
	<g>
		<path class="st0" d="M22.3,1.4h-4.6V0.7C17.7,0.3,17.4,0,17,0c-0.4,0-0.7,0.3-0.7,0.7v0.7h-4.1V0.7c0-0.4-0.3-0.7-0.7-0.7
			c-0.4,0-0.7,0.3-0.7,0.7v0.7H6.9V0.7C6.9,0.3,6.6,0,6.2,0C5.8,0,5.5,0.3,5.5,0.7v0.7H0.7C0.3,1.4,0,1.7,0,2.1v16
			c0,0.4,0.3,0.7,0.7,0.7H5c0.7,3,3.3,5.2,6.5,5.2c3.2,0,5.8-2.2,6.5-5.2h4.3c0.4,0,0.7-0.3,0.7-0.7v-16C23,1.7,22.7,1.4,22.3,1.4z
			 M11.5,22.6c-2.9,0-5.3-2.4-5.3-5.3c0-2.9,2.4-5.3,5.3-5.3c2.9,0,5.3,2.4,5.3,5.3C16.8,20.2,14.4,22.6,11.5,22.6z M21.6,17.4h-3.4
			c0,0,0-0.1,0-0.1c0-3.7-3-6.7-6.7-6.7c-3.7,0-6.7,3-6.7,6.7c0,0,0,0.1,0,0.1H1.4V7.1h20.2V17.4z M21.6,5.7H1.4V2.8h4.1v0.6
			c0,0.4,0.3,0.7,0.7,0.7c0.4,0,0.7-0.3,0.7-0.7V2.8h3.9v0.6c0,0.4,0.3,0.7,0.7,0.7c0.4,0,0.7-0.3,0.7-0.7V2.8h4.1v0.6
			c0,0.4,0.3,0.7,0.7,0.7c0.4,0,0.7-0.3,0.7-0.7V2.8h3.9V5.7z M12.2,17.5V14c0-0.4-0.3-0.7-0.7-0.7c-0.4,0-0.7,0.3-0.7,0.7v3.7
			c0,0.2,0.1,0.4,0.2,0.5l1.6,1.6c0.1,0.1,0.3,0.2,0.5,0.2c0.2,0,0.4-0.1,0.5-0.2c0.3-0.3,0.3-0.7,0-1L12.2,17.5z"/>
	</g>
</g>
</svg>
