<?xml version="1.0" encoding="utf-8"?>
<!-- Generator: Adobe Illustrator 21.0.0, SVG Export Plug-In . SVG Version: 6.00 Build 0)  -->
<svg version="1.1" id="Calque_1" xmlns="http://www.w3.org/2000/svg" xmlns:xlink="http://www.w3.org/1999/xlink" x="0px" y="0px"
	 width="62px" height="16.7px" viewBox="0 0 62 16.7" style="enable-background:new 0 0 62 16.7;" xml:space="preserve">
<style type="text/css">
	.st0{fill:#4EBDFF;}
</style>
<g>
	<g>
		<path class="st0" d="M16.4,5h-2.2v11.8h2.3v-6c0-2.1,1.7-3.7,3.6-3.7V4.8c-1.3,0-2.7,0.5-3.6,1.3L16.4,5L16.4,5z M26.5,4.8
			c-3.3,0-5.9,2.7-5.9,6s2.6,6,5.9,6s5.9-2.7,5.9-6S29.8,4.8,26.5,4.8z M26.5,14.5c-2,0-3.6-1.7-3.6-3.7S24.5,7,26.5,7
			s3.6,1.7,3.6,3.7C30.2,12.8,28.4,14.5,26.5,14.5z M39.7,4.8c-1.4,0-2.7,0.5-3.6,1.3V0.4h-2.3v10.3c0,3.3,2.6,6,5.9,6
			s5.9-2.6,5.9-6C45.6,7.4,42.9,4.8,39.7,4.8z M39.7,14.5c-2.1,0-3.6-1.7-3.6-3.7l0,0c0-2.1,1.7-3.7,3.6-3.7c2,0,3.6,1.7,3.6,3.7
			S41.6,14.5,39.7,14.5z M48.3,0c-0.8,0-1.5,0.7-1.5,1.5s0.7,1.5,1.5,1.5c0.8,0,1.5-0.7,1.5-1.5S49.1,0,48.3,0z M47.1,16.7h2.3V5
			h-2.3V16.7z M9.5,6c-1-0.7-2.3-1.2-3.6-1.2c-3.3,0-5.9,2.7-5.9,6s2.6,6,5.9,6c1.3,0,2.6-0.5,3.6-1.2v1.2h2.3V5H9.5V6z M9.5,10.7
			c0,2.1-1.7,3.7-3.6,3.7s-3.6-1.7-3.6-3.7S3.9,7,5.9,7C7.9,7,9.5,8.7,9.5,10.7L9.5,10.7z M54.6,14.4L62,7.1V5H51.5v2.3h7.3
			l-7.3,7.2l0,0v2.3H62v-2.3L54.6,14.4L54.6,14.4z"/>
	</g>
</g>
</svg>
